<svg xmlns="http://www.w3.org/2000/svg" viewBox="0 0 406.67 331.92"><defs><style>.cls-1{font-size:216px;font-family:Silom;}.cls-1,.cls-2{fill:#fff;}</style></defs><g id="Layer_2" data-name="Layer 2"><g id="Layer_1-2" data-name="Layer 1"><text class="cls-1" transform="translate(100.33 224.79)">M</text><path class="cls-2" d="M406.67,203.45l-1.13,44.19-.14,5.52,0,1.39,0,.69a7.14,7.14,0,0,1,0,.75l-.23,3.28a23.88,23.88,0,0,1-.45,3.26c-.21,1.07-.33,2.17-.64,3.22l-.89,3.16a12.26,12.26,0,0,1-.52,1.55L402,272a48.91,48.91,0,0,1-2.79,5.9c-.56.93-1.16,1.84-1.74,2.76-.3.45-.57.92-.89,1.35l-1,1.28a46,46,0,0,1-9.18,9.05l-2.63,1.87L381,295.81a25,25,0,0,1-2.88,1.44l-1.46.67a11.31,11.31,0,0,1-1.49.6l-3,1c-1,.35-2.07.53-3.1.8a50.11,50.11,0,0,1-6.32,1c-1.06.06-2.12.08-3.18.11l-1.59,0-1.4,0-5.52-.14-11.05-.28L295.75,300,119,295.45,295.75,291l44.19-1.12,11.05-.28,5.52-.14,1.37,0,1.17-.1c.78-.08,1.56-.11,2.33-.2a36.7,36.7,0,0,0,4.54-1c.73-.24,1.49-.38,2.21-.68l2.14-.87a5.89,5.89,0,0,0,1.05-.49l1-.53a16.39,16.39,0,0,0,2-1.14l1.94-1.25,1.8-1.44a32.24,32.24,0,0,0,6.15-6.74l.66-.93c.21-.31.38-.66.57-1l1.12-2a35.88,35.88,0,0,0,1.7-4.18l.36-1.07a5.67,5.67,0,0,0,.3-1.07l.5-2.19c.19-.73.19-1.48.31-2.22a15,15,0,0,0,.19-2.22l.05-2.23c0-.17,0-.39,0-.63l0-.69,0-1.39-.14-5.52-1.12-44.19Z"/><path class="cls-2" d="M0,86.12l1.13-40.2a48.29,48.29,0,0,1,6.5-22.79A49.7,49.7,0,0,1,11,18.24c.61-.77,1.2-1.56,1.85-2.3l2-2.15c.34-.34.67-.71,1-1l1.11-1c.74-.65,1.48-1.3,2.23-1.92l2.4-1.71,1.2-.84,1.27-.74,2.54-1.46,2.67-1.23,1.33-.6c.45-.18.92-.32,1.38-.49l2.77-.94A46.81,46.81,0,0,1,46.29.05c1,0,2-.06,2.85,0l2.51.07,5,.14,10,.28,40.19,1.13,160.76,4.5-160.76,4.5L66.72,11.74l-10,.29-5,.14-2.51.07c-.8,0-1.44.12-2.16.17a33.84,33.84,0,0,0-8.23,1.76l-2,.8c-.32.13-.65.24-1,.4l-.93.49-1.85,1L31.31,18l-.87.57-.82.66L28,20.51,26.5,22l-.75.72c-.24.24-.45.53-.68.79L23.73,25c-.42.55-.79,1.13-1.19,1.69a33.27,33.27,0,0,0-2.13,3.52,33,33,0,0,0-3.53,15.69L18,86.12Z"/></g></g></svg>